<svg xmlns="http://www.w3.org/2000/svg" width="1200" height="380" viewBox="0 0 1200 380" role="img" aria-label="Lewin's Insight">
  <defs>
    <linearGradient id="liBgDark" x1="0" y1="0" x2="1" y2="1">
      <stop offset="0" stop-color="#0B1220" />
      <stop offset="1" stop-color="#111827" />
    </linearGradient>
    <linearGradient id="liGlowDark" x1="0" y1="0" x2="1" y2="1">
      <stop offset="0" stop-color="#60A5FA" stop-opacity="0.25" />
      <stop offset="1" stop-color="#FB923C" stop-opacity="0.20" />
    </linearGradient>
    <filter id="liBlurDark" x="-20%" y="-20%" width="140%" height="140%">
      <feGaussianBlur stdDeviation="18" />
    </filter>
  </defs>

  <rect width="1200" height="380" rx="28" fill="url(#liBgDark)" />

  <g filter="url(#liBlurDark)">
    <circle cx="240" cy="120" r="90" fill="url(#liGlowDark)" />
    <circle cx="980" cy="90" r="120" fill="url(#liGlowDark)" />
    <circle cx="860" cy="310" r="110" fill="url(#liGlowDark)" />
  </g>

  <g opacity="0.9">
    <path
      d="M80 280c120-80 210-110 360-70 120 32 210 20 360-40 120-48 210-30 320 20"
      fill="none"
      stroke="#FFFFFF"
      stroke-opacity="0.08"
      stroke-width="10"
      stroke-linecap="round"
    />
    <path
      d="M80 280c120-80 210-110 360-70 120 32 210 20 360-40 120-48 210-30 320 20"
      fill="none"
      stroke="#60A5FA"
      stroke-opacity="0.14"
      stroke-width="3"
      stroke-linecap="round"
    />
  </g>

  <g>
    <text x="90" y="155" font-family="ui-sans-serif, system-ui, -apple-system, Segoe UI, Roboto, Helvetica, Arial" font-size="40" font-weight="900" fill="#FFFFFF">
      Lewin's Insight
    </text>
    <text x="90" y="198" font-family="ui-sans-serif, system-ui, -apple-system, Segoe UI, Roboto, Helvetica, Arial" font-size="18" font-weight="800" fill="#E5E7EB" opacity="0.92">
      写安全，也写 AI，也写生活
    </text>
    <text x="90" y="226" font-family="ui-sans-serif, system-ui, -apple-system, Segoe UI, Roboto, Helvetica, Arial" font-size="14" font-weight="500" fill="#CBD5E1">
      把复杂讲清楚，把瞬间写下来
    </text>
  </g>

  <g opacity="0.65">
    <rect x="90" y="240" width="320" height="12" rx="6" fill="#60A5FA" fill-opacity="0.22" />
    <rect x="90" y="262" width="260" height="12" rx="6" fill="#FB923C" fill-opacity="0.20" />
    <rect x="90" y="284" width="290" height="12" rx="6" fill="#FFFFFF" fill-opacity="0.10" />
  </g>
</svg>
