<svg xmlns="http://www.w3.org/2000/svg" width="1200" height="630" viewBox="0 0 1200 630" role="img" aria-label="Lewin's Insight">
  <defs>
    <linearGradient id="liOgBg" x1="0" y1="0" x2="1" y2="1">
      <stop offset="0" stop-color="#0B1220" />
      <stop offset="1" stop-color="#111827" />
    </linearGradient>
    <linearGradient id="liOgAccent" x1="0" y1="0" x2="1" y2="1">
      <stop offset="0" stop-color="#60A5FA" />
      <stop offset="1" stop-color="#FB923C" />
    </linearGradient>
    <filter id="liOgBlur" x="-20%" y="-20%" width="140%" height="140%">
      <feGaussianBlur stdDeviation="26" />
    </filter>
  </defs>

  <rect width="1200" height="630" fill="url(#liOgBg)" />

  <g filter="url(#liOgBlur)">
    <circle cx="260" cy="200" r="160" fill="url(#liOgAccent)" opacity="0.35" />
    <circle cx="940" cy="150" r="200" fill="url(#liOgAccent)" opacity="0.28" />
    <circle cx="900" cy="520" r="220" fill="url(#liOgAccent)" opacity="0.22" />
  </g>

  <g>
    <rect x="90" y="90" width="64" height="64" rx="18" fill="url(#liOgAccent)" />
    <path d="M112 110h18v30h34v12h-52v-42z" fill="#0B1220" opacity="0.92" />

    <text x="90" y="250" font-family="ui-sans-serif, system-ui, -apple-system, Segoe UI, Roboto, Helvetica, Arial" font-size="68" font-weight="900" fill="#FFFFFF">
      Lewin's Insight
    </text>
    <text x="90" y="310" font-family="ui-sans-serif, system-ui, -apple-system, Segoe UI, Roboto, Helvetica, Arial" font-size="28" font-weight="800" fill="#E5E7EB">
      写安全，也写 AI，也写生活
    </text>
    <text x="90" y="370" font-family="ui-sans-serif, system-ui, -apple-system, Segoe UI, Roboto, Helvetica, Arial" font-size="22" font-weight="500" fill="#CBD5E1">
      把复杂讲清楚，把瞬间写下来
    </text>
  </g>

  <g opacity="0.22">
    <path d="M90 450c160-110 300-150 480-110 160 36 300 16 480-54" fill="none" stroke="#FFFFFF" stroke-width="10" stroke-linecap="round" />
    <path d="M90 450c160-110 300-150 480-110 160 36 300 16 480-54" fill="none" stroke="url(#liOgAccent)" stroke-width="3" stroke-linecap="round" />
  </g>
</svg>
